<?xml version="1.0" encoding="UTF-8" standalone="no"?>
<!-- Created with Inkscape (http://www.inkscape.org/) -->

<svg
   xmlns:dc="http://purl.org/dc/elements/1.1/"
   xmlns:cc="http://creativecommons.org/ns#"
   xmlns:rdf="http://www.w3.org/1999/02/22-rdf-syntax-ns#"
   xmlns:svg="http://www.w3.org/2000/svg"
   xmlns="http://www.w3.org/2000/svg"
   xmlns:sodipodi="http://sodipodi.sourceforge.net/DTD/sodipodi-0.dtd"
   xmlns:inkscape="http://www.inkscape.org/namespaces/inkscape"
   width="200"
   height="200"
   id="svg3296"
   version="1.1"
   inkscape:version="0.47 r22583"
   sodipodi:docname="Neues Dokument 1">
  <defs
     id="defs3298">
    <inkscape:perspective
       sodipodi:type="inkscape:persp3d"
       inkscape:vp_x="0 : 240 : 1"
       inkscape:vp_y="0 : 1000 : 0"
       inkscape:vp_z="640 : 240 : 1"
       inkscape:persp3d-origin="320 : 160 : 1"
       id="perspective3304" />
    <inkscape:perspective
       id="perspective3314"
       inkscape:persp3d-origin="0.5 : 0.33333333 : 1"
       inkscape:vp_z="1 : 0.5 : 1"
       inkscape:vp_y="0 : 1000 : 0"
       inkscape:vp_x="0 : 0.5 : 1"
       sodipodi:type="inkscape:persp3d" />
  </defs>
  <sodipodi:namedview
     id="base"
     pagecolor="#ffffff"
     bordercolor="#666666"
     borderopacity="1.0"
     inkscape:pageopacity="0.0"
     inkscape:pageshadow="2"
     inkscape:zoom="0.77472527"
     inkscape:cx="320"
     inkscape:cy="240"
     inkscape:current-layer="layer1"
     inkscape:document-units="px"
     showgrid="false"
     inkscape:window-width="742"
     inkscape:window-height="715"
     inkscape:window-x="116"
     inkscape:window-y="351"
     inkscape:window-maximized="0" />
  <metadata
     id="metadata3301">
    <rdf:RDF>
      <cc:Work
         rdf:about="">
        <dc:format>image/svg+xml</dc:format>
        <dc:type
           rdf:resource="http://purl.org/dc/dcmitype/StillImage" />
        <dc:title></dc:title>
      </cc:Work>
    </rdf:RDF>
  </metadata>
  <g
     id="layer1"
     inkscape:label="Layer 1"
     inkscape:groupmode="layer"
     transform="translate(0,-280)">
    <path
       style="fill:#000000;fill-opacity:1;fill-rule:evenodd;stroke:#000000;stroke-width:0.39931458px;stroke-linecap:butt;stroke-linejoin:miter;stroke-opacity:1"
       d="m 51.872798,410.58795 c -1.38991,1.96174 -1.20039,3.1528 -4.2961,5.60498 -3.09571,2.45218 -4.80152,1.75155 -8.08676,4.20373 -3.28524,2.45217 -2.52711,3.22286 -5.05422,5.60497 -2.52711,2.38211 -2.33759,1.4713 -5.05424,3.92348 -2.71665,2.45217 -3.34842,2.5923 -5.81235,5.88522 -2.46394,3.29292 -3.7275,5.46485 -4.04339,7.28647 -0.31589,1.82162 2.02169,-1.05093 2.77983,0 0.75814,1.05093 -0.88449,3.43305 0.25271,4.20373 1.1372,0.77068 2.77982,-1.6815 4.29609,-1.121 1.51627,0.5605 0.82131,2.94261 1.76898,3.36299 0.94767,0.42038 0.69496,-2.17193 2.02169,-1.68149 1.32673,0.49044 1.76898,3.08274 3.28525,3.64323 1.51627,0.56049 1.20038,-1.19106 2.77982,-1.40125 1.57944,-0.21019 2.843,-1.26111 3.53796,0.56051 0.69496,1.82162 -2.52711,5.67503 -0.75813,6.72596 1.76898,1.05093 4.48562,-1.82161 7.83405,-2.52223 3.34843,-0.70062 1.89534,3.01267 5.55966,-0.28026 3.66431,-3.29292 5.43329,-8.40746 9.0976,-12.89144 3.66431,-4.48398 2.46394,-2.87256 5.55965,-5.04448 3.09572,-2.17193 3.60114,-2.31204 6.82321,-3.64322 3.22207,-1.33118 6.76003,0.35032 6.06507,-1.68149 -0.69496,-2.0318 -5.37011,-3.92349 -8.84489,-6.44573 -3.47478,-2.52224 -3.4116,-0.28025 -5.05423,-3.64323 -1.64263,-3.36298 -1.64262,-5.39478 -1.51627,-9.8087 0.12636,-4.41392 0.82131,-4.48398 2.02169,-7.84696 1.20038,-3.36299 0.75813,-2.38212 2.77982,-5.60498 2.02169,-3.22286 2.96937,-4.2738 5.30695,-7.28647 2.33758,-3.01267 2.46393,-1.96173 4.04337,-4.76422 1.57944,-2.80249 2.40076,-5.32473 2.27441,-6.44572 -0.12635,-1.121 -1.26355,0 -2.77982,1.96174 -1.51627,1.96174 -1.57946,3.36298 -3.28526,5.88522 -1.7058,2.52224 -1.83216,2.31205 -3.53796,4.20373 -1.7058,1.89168 -1.01085,1.75155 -3.28525,3.36298 -2.2744,1.61143 -2.77981,0.70063 -5.81235,3.08274 -3.03253,2.38212 -3.91703,3.85342 -6.31779,6.44572 -2.40076,2.5923 -2.14804,2.38211 -3.28524,3.92348 -1.1372,1.54137 0.12635,0.28025 -1.26356,2.24199 z"
       id="path2133"
       sodipodi:nodetypes="czzzzzzzzzzzzzzzzzzzzzzzzzzzzzzzzzzzzz" />
    <path
       style="fill:#000000;fill-opacity:1;fill-rule:evenodd;stroke:#000000;stroke-width:0.26463699px;stroke-linecap:butt;stroke-linejoin:miter;stroke-opacity:1"
       d="m 111.97043,427.15437 c 2.81406,3.84183 11.92826,10.7849 14.95233,14.81187 3.02406,4.02698 -1.63804,0.78689 -2.85607,1.29604 -1.21803,0.50916 -0.67201,1.06461 -2.01604,0.7406 -1.34403,-0.32401 -1.93205,-1.57377 -3.36007,-2.03664 -1.42803,-0.46287 -1.17603,-0.6943 -2.35205,0.18515 -1.17603,0.87946 -2.18405,2.49951 -2.35205,3.33268 -0.16801,0.83317 0.88202,0.3703 1.68003,0 0.79802,-0.3703 0.33601,-1.15718 1.51204,-1.48119 1.17602,-0.32401 2.31004,-0.41659 3.19206,0.18515 0.88202,0.60173 -0.75602,1.66633 0.336,2.22178 1.09203,0.55545 1.93205,0.41659 4.0321,0 2.10004,-0.41659 2.77205,-1.20347 4.36809,-1.66634 1.59604,-0.46287 1.00802,-1.66633 2.01605,-0.18514 1.00802,1.48119 1.72203,3.47153 2.01604,6.10989 0.29401,2.63837 -1.13402,2.86981 -0.84002,4.44357 0.29401,1.57376 1.26003,0.74059 2.01605,1.85148 0.75602,1.11089 0.29401,2.26807 1.00802,2.59208 0.71401,0.32401 1.59603,-0.0926 1.84804,-1.29604 0.252,-1.20346 -0.29401,-1.75891 -0.84002,-3.51782 -0.54601,-1.75891 -1.72204,-2.96238 -1.34403,-3.51782 0.37801,-0.55545 1.84804,0.3703 2.85606,1.29604 1.00803,0.92574 0.42002,1.0646 1.17603,2.40693 0.75602,1.34233 1.05003,2.40693 1.84804,2.96237 0.79802,0.55545 1.72204,0.87945 1.34403,-0.74059 -0.37801,-1.62005 -1.47003,-3.61039 -2.85606,-5.7396 -1.38603,-2.12921 -1.42803,-1.15718 -2.68806,-2.77723 -1.26003,-1.62005 -1.05003,-1.89777 -2.35205,-3.70297 -1.30203,-1.8052 -1.38603,-2.03663 -2.85606,-3.51782 -1.47004,-1.48119 0.92402,1.29604 -3.02407,-2.40693 -3.94809,-3.70297 -8.6522,-9.44258 -12.76828,-12.40495 -4.11609,-2.96238 -6.51015,-3.28638 -3.69608,0.55545 z"
       id="path2135"
       sodipodi:nodetypes="czzzzzzzzzzzzzzzzzzzzzzzzzzzzzzz" />
    <path
       style="fill:#000000;fill-opacity:0.98513016;fill-rule:evenodd;stroke:#000000;stroke-width:0.33271843px;stroke-linecap:butt;stroke-linejoin:miter;stroke-opacity:1"
       d="m 163.6389,318.3243 c -1.54713,-0.92164 -2.45406,-1.44007 -4.26794,-2.76493 -1.81388,-1.32486 -1.49379,-1.32486 -2.98757,-2.53452 -1.49378,-1.20965 -1.28038,-1.38246 -2.98756,-2.3041 -1.70718,-0.92164 -2.13397,-0.63363 -3.84115,-1.38247 -1.70718,-0.74883 -1.06699,-0.97924 -2.98757,-1.61287 -1.92058,-0.63363 -2.56077,-0.74884 -4.69474,-0.92165 -2.13397,-0.17281 -2.13397,0.17281 -3.84115,0.23041 -1.70718,0.0576 -0.7469,-0.34562 -2.98757,0 -2.24067,0.34562 -3.62775,0.69124 -5.97512,1.38247 -2.34737,0.69123 -1.60048,0.40321 -3.41436,1.38246 -1.81388,0.97924 -2.02727,1.15205 -3.84115,2.53452 -1.81388,1.38247 -1.92058,1.67048 -3.41435,2.99534 -1.49378,1.32486 -0.96029,0.92164 -2.56077,2.3041 -1.60048,1.38246 -2.18732,1.49767 -3.84115,3.22575 -1.65383,1.72808 -1.70718,2.07371 -2.77417,3.68658 -1.06699,1.61287 -0.3201,1.32485 -1.49378,2.76492 -1.17369,1.44006 -1.54713,1.32486 -3.20096,2.99534 -1.65383,1.67048 -1.22704,1.72808 -3.41436,3.68657 -2.187322,1.95849 -2.774162,1.84328 -5.334932,4.14739 -2.56077,2.30411 -2.34737,2.59212 -4.90814,5.06904 -2.56077,2.47691 -2.66746,2.3617 -5.33493,4.83862 -2.66747,2.47691 -3.04092,2.82253 -5.33494,5.06904 -2.29402,2.24651 -1.76053,1.49767 -3.84115,3.91698 -2.08062,2.41931 -2.34737,3.11055 -4.48135,5.76027 -2.13397,2.64972 -2.34737,2.64972 -4.05455,4.83862 -1.70718,2.1889 -1.17368,1.78568 -2.77416,3.91698 -1.60048,2.1313 -1.76053,2.01609 -3.62776,4.60821 -1.86723,2.59212 -2.18732,3.05295 -3.84115,5.76027 -1.65383,2.70732 -1.38708,2.41931 -2.77416,5.06903 -1.38708,2.64972 -1.38709,2.53452 -2.77417,5.52986 -1.38709,2.99534 -1.76053,3.62897 -2.77417,6.4515 -1.01364,2.82253 -0.58684,2.3041 -1.28038,4.83862 -0.69354,2.53452 -1.12033,3.22575 -1.49378,5.29945 -0.37344,2.0737 -0.1067,1.61288 0,2.99534 0.1067,1.38246 -0.80025,2.70732 0.42679,2.53451 1.22704,-0.17281 2.08063,-1.32485 4.48135,-3.22574 2.40072,-1.90089 2.56077,-2.0161 5.12154,-4.37781 2.56077,-2.36171 2.34737,-2.88013 5.12153,-5.06903 2.77416,-2.1889 3.52106,-1.67049 5.97513,-3.68658 2.45407,-2.01609 2.18732,-2.0737 3.84115,-4.3778 1.65383,-2.3041 1.54713,-3.11054 2.77416,-4.83862 1.22704,-1.72808 0.7469,0.51842 2.13398,-2.0737 1.38708,-2.59212 2.18732,-5.12664 3.41436,-8.29478 1.22703,-3.16815 2.18732,-6.33629 1.49378,-4.3778 -0.69354,1.95849 -2.61412,7.89156 -4.26795,12.21176 -1.65383,4.3202 -1.06699,2.99534 -2.34737,5.06904 -1.28039,2.0737 -1.28039,1.32486 -2.77417,3.22575 -1.49378,1.90089 -1.65383,2.1889 -3.20096,4.3778 -1.54713,2.1889 -1.76052,1.61287 -2.98756,4.3778 -1.22703,2.76493 -1.28039,3.34096 -1.92058,6.68191 -0.64019,3.34096 -0.69354,3.97459 -0.64019,6.68191 0.0534,2.70732 0.0534,2.76492 0.85359,4.14739 0.80024,1.38247 0.69354,0.57603 2.34737,1.38247 1.65383,0.80644 2.24067,0.57602 4.26795,1.84328 2.02728,1.26726 1.97392,1.67048 3.84115,3.22575 1.86723,1.55527 1.54713,2.30411 3.62776,2.99534 2.08063,0.69123 3.09426,-0.1152 4.69474,-0.23041 1.60048,-0.11521 0.53349,-0.23041 1.70718,-0.23041 1.17368,0 1.60048,0.69123 2.98756,0.23041 1.38708,-0.46082 1.01364,-2.1313 2.56077,-2.0737 1.54713,0.0576 1.28039,1.84329 3.62776,2.30411 2.34737,0.46082 3.52106,-0.28801 5.76173,-0.46082 2.240672,-0.17281 1.440432,-0.40322 3.200962,-0.23041 1.76053,0.17281 1.97392,0.74883 3.84115,0.92164 1.86723,0.17281 1.54712,0.28801 3.62775,-0.23041 2.08063,-0.51843 2.29403,-0.57603 4.69475,-1.84329 2.40072,-1.26726 1.86722,-1.20965 4.90812,-3.22574 3.04091,-2.01609 4.48134,-2.30411 7.25551,-4.83863 2.77417,-2.53452 1.86723,-2.99534 3.84116,-5.29945 1.97393,-2.30411 2.18732,-1.67047 4.05455,-3.91697 1.86723,-2.2465 1.81387,-2.76493 3.41435,-5.06904 1.60048,-2.30411 1.38709,-1.90089 2.98757,-4.14739 1.60048,-2.2465 1.86723,-2.2465 3.41436,-4.83862 1.54713,-2.59212 1.44043,-2.59212 2.77416,-5.52986 1.33373,-2.93774 1.28039,-2.76493 2.56077,-6.22109 1.28039,-3.45616 1.81388,-4.66581 2.56077,-7.60355 0.74689,-2.93773 -1e-5,-1.38246 0.42679,-4.14739 0.42679,-2.76493 0.90694,-3.05294 1.28039,-6.91232 0.37345,-3.85938 0.16005,-4.72342 0.2134,-8.5252 0.0534,-3.80178 0.0534,-4.03219 0,-6.68191 -0.0533,-2.64972 -0.0533,-2.0737 -0.2134,-3.91698 -0.16005,-1.84328 -0.6402,-1.38246 -0.4268,-3.45616 0.2134,-2.07369 0.5335,-2.59212 1.28039,-4.83862 0.74689,-2.2465 0.69354,-2.1889 1.70718,-4.14739 1.01364,-1.95849 1.12033,-1.84329 2.34737,-3.68658 1.22703,-1.84329 1.22704,-2.30411 2.56077,-3.68657 1.33373,-1.38246 0.96028,-1.15205 2.77416,-1.84328 1.81388,-0.69123 2.02728,-0.34561 4.48135,-0.92164 2.45407,-0.57603 3.5744,-0.63364 5.33493,-1.38247 1.76053,-0.74883 1.17369,-0.74883 1.70718,-1.61287 0.53349,-0.86404 1.06698,-1.15206 0.42679,-1.84329 -0.64019,-0.69123 -1.12033,-0.69123 -2.98756,-0.92164 -1.86723,-0.23041 -2.50742,0.0576 -4.48134,0 -1.97393,-0.0576 -2.08062,0.0576 -3.41436,-0.23041 -1.33374,-0.28801 -0.37345,0 -1.92058,-0.92164 z"
       id="path2137"
       sodipodi:nodetypes="czzzzzzzzzzzzzzzzzzzzzzzzzzzzzzzzzzzzzzzzzzzzzzzzzzzzzzzzzzzzzzzzzzzzzzzzzzzzzzzzzzzzzzzzzzzzzzz" />
  </g>
</svg>
